<?xml version="1.0" encoding="UTF-8" standalone="yes"?>
<svg version="1.2" width="100%" viewBox="0 0 575 575" xml:space="preserve" baseProfile="tiny-ps" xmlns="http://www.w3.org/2000/svg">
  <title>bimi-svg-tiny-12-ps</title>
  <path fill="#FEFEFF" stroke="none" d="&#xA;M387.000000,576.000000 &#xA;&#x9;C258.000000,576.000000 129.500000,576.000000 1.000000,576.000000 &#xA;&#x9;C1.000000,384.333344 1.000000,192.666672 1.000000,1.000000 &#xA;&#x9;C192.666672,1.000000 384.333344,1.000000 576.000000,1.000000 &#xA;&#x9;C576.000000,192.666672 576.000000,384.333344 576.000000,576.000000 &#xA;&#x9;C513.166687,576.000000 450.333344,576.000000 387.000000,576.000000 &#xA;M92.080170,460.189636 &#xA;&#x9;C113.102859,454.215240 134.900421,453.720978 156.426407,451.225006 &#xA;&#x9;C133.262314,445.315613 111.562157,451.606689 89.247276,458.986816 &#xA;&#x9;C86.852890,460.030029 84.458496,461.073212 82.064102,462.116394 &#xA;&#x9;C82.297234,462.672913 82.530373,463.229431 82.763512,463.785919 &#xA;&#x9;C85.613022,462.618713 88.462524,461.451477 92.080170,460.189636 &#xA;M157.714005,314.829346 &#xA;&#x9;C155.182724,302.447205 152.490753,290.094452 150.219910,277.664734 &#xA;&#x9;C149.554718,274.023773 148.014328,273.195343 144.594925,273.221863 &#xA;&#x9;C125.772293,273.367981 106.947906,273.285645 88.124153,273.304932 &#xA;&#x9;C86.861618,273.306244 85.599281,273.498810 83.627533,273.660645 &#xA;&#x9;C84.619957,275.274963 85.191528,276.395233 85.936470,277.384949 &#xA;&#x9;C90.141754,282.972198 94.598381,288.386688 98.502808,294.174744 &#xA;&#x9;C99.794518,296.089630 100.578209,299.126434 100.108620,301.334290 &#xA;&#x9;C92.011414,339.405792 83.685623,377.428680 75.400108,415.460083 &#xA;&#x9;C73.365387,424.799652 71.295883,434.131653 69.114403,444.048920 &#xA;&#x9;C83.069466,444.048920 96.199730,444.148071 109.322716,443.884796 &#xA;&#x9;C110.540810,443.860382 112.455231,441.707123 112.790947,440.252594 &#xA;&#x9;C116.044762,426.155029 119.002472,411.989471 122.102798,397.856049 &#xA;&#x9;C123.903381,389.647827 125.809944,381.462891 127.668816,373.267456 &#xA;&#x9;C128.190521,373.252594 128.712219,373.237732 129.233932,373.222870 &#xA;&#x9;C132.396347,391.375702 135.558777,409.528534 138.869003,428.529724 &#xA;&#x9;C149.530914,420.505005 160.450897,413.996918 169.137039,405.266388 &#xA;&#x9;C177.790482,396.568665 184.202713,385.641174 192.349960,374.679108 &#xA;&#x9;C187.208328,398.370453 182.331741,420.840576 177.292969,444.058044 &#xA;&#x9;C190.380646,444.058044 202.341583,443.831512 214.286072,444.176117 &#xA;&#x9;C218.698517,444.303436 220.238754,442.794312 221.138336,438.654602 &#xA;&#x9;C231.171051,392.485687 241.395294,346.358459 251.535553,300.212860 &#xA;&#x9;C253.451279,291.494904 255.225250,282.745789 257.216278,273.290924 &#xA;&#x9;C254.913147,273.290924 253.299911,273.290955 251.686676,273.290955 &#xA;&#x9;C241.025421,273.290924 230.352997,273.576660 219.707993,273.160797 &#xA;&#x9;C214.949799,272.974945 212.106369,274.509644 209.496719,278.373993 &#xA;&#x9;C199.246613,293.552277 188.720444,308.544281 178.275787,323.590881 &#xA;&#x9;C173.763931,330.090698 169.200989,336.555084 163.773636,344.302612 &#xA;&#x9;C161.614624,333.785370 159.754257,324.722961 157.714005,314.829346 &#xA;M267.500000,444.061981 &#xA;&#x9;C284.994385,444.061890 302.489899,443.958649 319.982208,444.148041 &#xA;&#x9;C323.511627,444.186218 325.003693,443.141907 325.635651,439.667084 &#xA;&#x9;C326.706665,433.777893 328.322601,427.990021 329.592834,422.134277 &#xA;&#x9;C331.486481,413.404510 333.278809,404.652832 335.272797,395.155182 &#xA;&#x9;C324.854950,395.155182 315.079895,395.155182 305.304871,395.155182 &#xA;&#x9;C292.945862,395.155182 292.945770,395.155151 289.930481,407.336853 &#xA;&#x9;C289.810455,407.821747 289.851715,408.460968 289.551300,408.764984 &#xA;&#x9;C288.709320,409.617126 287.757233,410.949341 286.796021,410.995361 &#xA;&#x9;C282.018524,411.224121 277.224152,411.099762 272.007385,411.099762 &#xA;&#x9;C272.219482,409.217194 272.254425,407.925049 272.522705,406.683319 &#xA;&#x9;C274.420807,397.898041 276.703979,389.178802 278.167267,380.323334 &#xA;&#x9;C279.005219,375.252136 281.213257,373.422150 286.085632,374.209290 &#xA;&#x9;C294.035645,375.493591 300.522522,372.751099 306.586273,367.588959 &#xA;&#x9;C312.658630,362.419495 319.377777,358.012726 325.779785,353.226654 &#xA;&#x9;C330.530334,349.675171 335.226959,346.051636 339.947632,342.460205 &#xA;&#x9;C339.852814,342.020294 339.758026,341.580414 339.663239,341.140503 &#xA;&#x9;C322.227417,341.140503 304.791626,341.140503 286.851288,341.140503 &#xA;&#x9;C289.373413,329.770020 291.635223,319.386169 294.048401,309.037598 &#xA;&#x9;C294.248169,308.180908 295.449615,306.962708 296.225525,306.932404 &#xA;&#x9;C301.148560,306.739960 306.082764,306.834625 311.531769,306.834625 &#xA;&#x9;C310.578400,312.289978 309.768005,316.927216 308.848938,322.186340 &#xA;&#x9;C311.528931,322.186340 313.488373,322.187408 315.447845,322.186218 &#xA;&#x9;C326.610962,322.179352 337.774139,322.189026 348.936951,322.125610 &#xA;&#x9;C349.669495,322.121429 350.606628,321.748840 351.095154,321.220703 &#xA;&#x9;C353.782257,318.315552 353.982971,307.609070 351.469177,304.408051 &#xA;&#x9;C344.269897,295.240509 336.957703,286.159363 329.900024,276.884369 &#xA;&#x9;C327.862488,274.206665 325.661774,273.193726 322.327576,273.219971 &#xA;&#x9;C304.500946,273.360321 286.670471,273.433655 268.846436,273.177124 &#xA;&#x9;C264.622345,273.116333 263.071869,274.546906 262.215424,278.507721 &#xA;&#x9;C252.054062,325.502136 241.738205,372.463104 231.481293,419.436890 &#xA;&#x9;C229.729263,427.460754 228.063507,435.503479 226.246536,444.062042 &#xA;&#x9;C240.228683,444.062042 253.364349,444.062042 267.500000,444.061981 &#xA;M359.302307,404.772858 &#xA;&#x9;C356.531097,417.665222 353.759888,430.557587 350.859161,444.052521 &#xA;&#x9;C365.001587,444.052521 378.134613,444.154755 391.259918,443.882629 &#xA;&#x9;C392.473083,443.857452 394.369751,441.617981 394.711487,440.123627 &#xA;&#x9;C398.568481,423.257874 402.183167,406.336700 405.863342,389.430481 &#xA;&#x9;C411.559814,363.261963 417.320435,337.107086 422.874298,310.908325 &#xA;&#x9;C423.588013,307.541626 425.086456,306.431335 428.284363,306.755219 &#xA;&#x9;C430.050049,306.934052 431.848694,306.787292 434.256287,306.787292 &#xA;&#x9;C433.334808,312.123077 432.532349,316.769684 431.762817,321.225739 &#xA;&#x9;C432.467346,321.665680 432.744690,321.989899 433.024017,321.991577 &#xA;&#x9;C445.847778,322.068878 458.672974,322.204498 471.493622,322.024292 &#xA;&#x9;C472.657745,322.007935 474.468262,320.122162 474.824860,318.794617 &#xA;&#x9;C476.377289,313.014862 477.508911,307.121796 478.781769,301.267365 &#xA;&#x9;C480.749146,292.218506 482.707031,283.167633 484.749756,273.744568 &#xA;&#x9;C434.811371,273.744568 385.515533,273.744568 336.020477,273.744568 &#xA;&#x9;C336.285797,274.690948 336.290558,275.258026 336.567078,275.614044 &#xA;&#x9;C344.023346,285.214081 351.414154,294.868439 359.088409,304.291840 &#xA;&#x9;C360.227478,305.690521 362.689087,306.554291 364.601837,306.676086 &#xA;&#x9;C369.703217,307.000977 374.838928,306.786591 380.809814,306.786591 &#xA;&#x9;C373.607483,339.717407 366.581238,371.843201 359.302307,404.772858 &#xA;M410.266418,216.180649 &#xA;&#x9;C419.657471,222.721558 419.656464,222.721329 417.078705,234.004868 &#xA;&#x9;C416.781952,235.303741 416.768463,236.758438 416.136871,237.862381 &#xA;&#x9;C415.577484,238.840195 414.356720,240.064789 413.399261,240.089935 &#xA;&#x9;C406.292358,240.276733 399.178314,240.191208 391.501617,240.191208 &#xA;&#x9;C392.372589,236.106140 393.322052,232.748291 393.711273,229.326675 &#xA;&#x9;C393.884094,227.807571 393.439789,225.373581 392.400116,224.693741 &#xA;&#x9;C383.379578,218.795258 374.159943,213.201309 364.528290,207.224304 &#xA;&#x9;C363.986206,209.180481 363.531616,210.557663 363.225281,211.967087 &#xA;&#x9;C360.185974,225.951065 357.195740,239.945755 354.139801,253.926086 &#xA;&#x9;C352.417023,261.807465 356.386505,266.739258 364.644012,266.745728 &#xA;&#x9;C389.634735,266.765289 414.625916,266.679108 439.615662,266.835999 &#xA;&#x9;C443.231049,266.858704 444.851044,265.957825 445.616058,262.223907 &#xA;&#x9;C449.224213,244.612549 453.001923,227.032516 457.045441,209.516632 &#xA;&#x9;C457.864105,205.970383 457.139313,204.178192 454.217773,202.170242 &#xA;&#x9;C439.666870,192.169617 425.318848,181.874146 410.790192,171.840561 &#xA;&#x9;C408.213623,170.061172 407.155548,168.247650 408.087463,165.221497 &#xA;&#x9;C408.722260,163.160095 408.945526,160.968628 409.624634,158.925705 &#xA;&#x9;C409.941132,157.973694 410.885803,156.526825 411.574402,156.510422 &#xA;&#x9;C418.939819,156.335022 426.311005,156.401352 434.017395,156.401352 &#xA;&#x9;C433.321686,159.822418 432.616364,162.240936 432.419159,164.700180 &#xA;&#x9;C432.319458,165.943558 432.734985,167.887619 433.604797,168.447830 &#xA;&#x9;C442.788483,174.362442 452.110809,180.061752 461.992432,186.191071 &#xA;&#x9;C465.466522,170.234207 468.978546,155.003891 472.013031,139.679031 &#xA;&#x9;C473.081512,134.283005 468.299957,130.002655 462.025696,129.993942 &#xA;&#x9;C436.535217,129.958527 411.044342,130.039871 385.554565,129.900879 &#xA;&#x9;C382.282654,129.883057 380.947571,130.799652 380.269867,134.067215 &#xA;&#x9;C376.822296,150.690536 373.216888,167.283188 369.424133,183.830978 &#xA;&#x9;C368.750488,186.770203 369.843872,188.016327 371.958862,189.477631 &#xA;&#x9;C384.567261,198.188934 397.104004,207.003845 410.266418,216.180649 &#xA;M192.071762,192.530106 &#xA;&#x9;C195.328705,190.138107 198.585663,187.746109 201.842606,185.354111 &#xA;&#x9;C201.694855,184.926712 201.547104,184.499313 201.399353,184.071915 &#xA;&#x9;C187.578339,184.071915 173.757324,184.071915 159.384277,184.071915 &#xA;&#x9;C161.361069,175.021835 163.118164,166.742584 165.043381,158.502625 &#xA;&#x9;C165.251358,157.612457 166.397797,156.331482 167.170639,156.286240 &#xA;&#x9;C171.054657,156.058884 174.959167,156.181961 179.261612,156.181961 &#xA;&#x9;C178.444565,160.858398 177.778320,164.671631 177.064148,168.759308 &#xA;&#x9;C188.672180,168.759308 199.624573,168.759308 211.001999,168.759308 &#xA;&#x9;C212.799576,160.743332 214.578552,152.806503 216.359406,144.870117 &#xA;&#x9;C217.945862,137.799957 211.556351,129.745117 204.309723,129.741547 &#xA;&#x9;C177.487381,129.728302 150.665039,129.735825 123.842690,129.735550 &#xA;&#x9;C122.256851,129.735535 120.671005,129.735550 117.884521,129.735550 &#xA;&#x9;C122.386238,135.611664 125.994446,140.563919 129.876099,145.291656 &#xA;&#x9;C131.992783,147.869705 132.297775,150.320053 131.574814,153.559280 &#xA;&#x9;C123.743225,188.648422 116.072708,223.773529 108.377983,258.893127 &#xA;&#x9;C107.852722,261.290466 107.485840,263.722473 107.072319,265.990204 &#xA;&#x9;C107.588127,266.292267 107.731598,266.449707 107.875702,266.450287 &#xA;&#x9;C134.346710,266.557251 160.817810,266.681122 187.288620,266.638702 &#xA;&#x9;C188.268677,266.637146 189.885864,265.156830 190.126923,264.115723 &#xA;&#x9;C192.894424,252.163315 195.452667,240.162460 198.243835,227.361862 &#xA;&#x9;C189.382660,227.361862 181.122467,227.361832 172.862289,227.361847 &#xA;&#x9;C164.180023,227.361862 164.279053,227.388779 161.998642,235.786819 &#xA;&#x9;C161.560837,237.399063 160.167252,239.768234 158.934357,239.956894 &#xA;&#x9;C155.287552,240.514969 151.500473,240.156433 147.152130,240.156433 &#xA;&#x9;C149.231186,230.482101 151.012054,221.702026 153.129837,213.003983 &#xA;&#x9;C153.377121,211.988449 155.629013,210.597183 156.707581,210.784546 &#xA;&#x9;C165.315506,212.279846 171.695465,208.254227 177.882828,203.117233 &#xA;&#x9;C182.233780,199.504898 186.947327,196.329285 192.071762,192.530106 &#xA;M289.856323,255.592850 &#xA;&#x9;C291.849518,246.385681 293.842743,237.178513 295.813721,228.073975 &#xA;&#x9;C294.981689,227.731216 294.677582,227.497986 294.371826,227.495804 &#xA;&#x9;C287.212555,227.444473 280.053101,227.401215 272.893646,227.391098 &#xA;&#x9;C262.126343,227.375900 262.127899,227.387558 259.390106,237.494263 &#xA;&#x9;C259.180481,238.268112 258.926575,239.029999 258.692017,239.801651 &#xA;&#x9;C254.069885,239.801651 249.692749,239.801651 244.847794,239.801651 &#xA;&#x9;C252.901001,203.046082 260.854492,166.745697 268.824493,130.369904 &#xA;&#x9;C251.116791,130.369904 234.010559,130.369904 216.022675,130.369904 &#xA;&#x9;C220.347519,136.002869 224.324448,140.711624 227.698074,145.818893 &#xA;&#x9;C228.968475,147.742157 229.697769,150.772369 229.223129,152.987030 &#xA;&#x9;C221.413345,189.427261 213.366211,225.816605 205.403168,262.224091 &#xA;&#x9;C205.107590,263.575378 205.124161,264.994965 204.960587,266.756134 &#xA;&#x9;C207.366440,266.756134 209.178467,266.756134 210.990479,266.756134 &#xA;&#x9;C232.972488,266.756134 254.954514,266.756104 276.936523,266.756134 &#xA;&#x9;C287.427490,266.756134 287.427490,266.756165 289.856323,255.592850 &#xA;M326.130432,160.390854 &#xA;&#x9;C318.437622,195.624237 310.744843,230.857605 302.907257,266.754120 &#xA;&#x9;C313.137665,266.754120 322.603699,266.513489 332.047729,266.864105 &#xA;&#x9;C336.242035,267.019775 337.703796,265.693604 338.574432,261.617828 &#xA;&#x9;C346.224274,225.806641 354.128632,190.049850 361.946442,154.274506 &#xA;&#x9;C363.671295,146.381424 365.352020,138.478683 367.121979,130.260254 &#xA;&#x9;C349.391693,130.260254 332.382141,130.260254 314.383209,130.260254 &#xA;&#x9;C317.267151,134.081879 319.311859,137.549973 322.075195,140.294525 &#xA;&#x9;C327.746643,145.927460 329.455841,152.140366 326.130432,160.390854 &#xA;M436.384186,435.767609 &#xA;&#x9;C434.853180,450.330627 424.987701,461.444427 409.038788,465.960052 &#xA;&#x9;C389.436462,471.510040 369.179504,472.620361 349.108551,471.617249 &#xA;&#x9;C314.561920,469.890564 280.063354,466.942810 245.599503,463.887939 &#xA;&#x9;C205.938278,460.372375 166.326706,457.072876 126.489464,461.003296 &#xA;&#x9;C107.897636,462.837555 90.107964,467.175293 73.671906,476.287689 &#xA;&#x9;C72.273392,477.063019 71.131561,478.301270 69.870483,479.324463 &#xA;&#x9;C70.099861,479.799347 70.329239,480.274200 70.558624,480.749084 &#xA;&#x9;C71.844948,480.487427 73.257957,480.484467 74.398857,479.925812 &#xA;&#x9;C96.146408,469.276825 119.549080,466.376221 143.284927,465.709595 &#xA;&#x9;C176.611160,464.773621 209.805832,466.983826 242.960999,470.481384 &#xA;&#x9;C270.091736,473.343414 297.280914,476.174774 324.516449,477.363098 &#xA;&#x9;C348.576691,478.412872 372.767059,477.829681 396.841919,476.714630 &#xA;&#x9;C412.640930,475.982880 427.210999,470.656647 437.695068,457.590576 &#xA;&#x9;C443.860016,449.907288 447.798370,441.443665 445.836853,431.367218 &#xA;&#x9;C445.514130,429.709381 442.930420,427.351471 441.432251,427.380951 &#xA;&#x9;C439.910217,427.410919 438.254547,429.857422 437.022644,431.516785 &#xA;&#x9;C436.413116,432.337860 436.624847,433.768585 436.384186,435.767609 &#xA;M448.035767,464.563324 &#xA;&#x9;C451.337952,459.038208 454.857117,453.627350 457.851654,447.940247 &#xA;&#x9;C459.371704,445.053436 459.748199,440.909485 456.005432,439.822998 &#xA;&#x9;C451.720062,438.578949 450.993347,443.038269 450.633698,445.949005 &#xA;&#x9;C449.735535,453.217621 446.510590,459.278015 441.803131,464.582947 &#xA;&#x9;C439.233582,467.478577 436.084412,469.859894 432.499298,473.104218 &#xA;&#x9;C439.514008,472.828339 443.197632,468.289032 448.035767,464.563324 &#xA;z"/>
  <path fill="#3AB7FF" stroke="none" d="&#xA;M157.803955,315.244934 &#xA;&#x9;C159.754257,324.722961 161.614624,333.785370 163.773636,344.302612 &#xA;&#x9;C169.200989,336.555084 173.763931,330.090698 178.275787,323.590881 &#xA;&#x9;C188.720444,308.544281 199.246613,293.552277 209.496719,278.373993 &#xA;&#x9;C212.106369,274.509644 214.949799,272.974945 219.707993,273.160797 &#xA;&#x9;C230.352997,273.576660 241.025421,273.290924 251.686676,273.290955 &#xA;&#x9;C253.299911,273.290955 254.913147,273.290924 257.216278,273.290924 &#xA;&#x9;C255.225250,282.745789 253.451279,291.494904 251.535553,300.212860 &#xA;&#x9;C241.395294,346.358459 231.171051,392.485687 221.138336,438.654602 &#xA;&#x9;C220.238754,442.794312 218.698517,444.303436 214.286072,444.176117 &#xA;&#x9;C202.341583,443.831512 190.380646,444.058044 177.292969,444.058044 &#xA;&#x9;C182.331741,420.840576 187.208328,398.370453 192.349960,374.679108 &#xA;&#x9;C184.202713,385.641174 177.790482,396.568665 169.137039,405.266388 &#xA;&#x9;C160.450897,413.996918 149.530914,420.505005 138.869003,428.529724 &#xA;&#x9;C135.558777,409.528534 132.396347,391.375702 129.233932,373.222870 &#xA;&#x9;C128.712219,373.237732 128.190521,373.252594 127.668816,373.267456 &#xA;&#x9;C125.809944,381.462891 123.903381,389.647827 122.102798,397.856049 &#xA;&#x9;C119.002472,411.989471 116.044762,426.155029 112.790947,440.252594 &#xA;&#x9;C112.455231,441.707123 110.540810,443.860382 109.322716,443.884796 &#xA;&#x9;C96.199730,444.148071 83.069466,444.048920 69.114403,444.048920 &#xA;&#x9;C71.295883,434.131653 73.365387,424.799652 75.400108,415.460083 &#xA;&#x9;C83.685623,377.428680 92.011414,339.405792 100.108620,301.334290 &#xA;&#x9;C100.578209,299.126434 99.794518,296.089630 98.502808,294.174744 &#xA;&#x9;C94.598381,288.386688 90.141754,282.972198 85.936470,277.384949 &#xA;&#x9;C85.191528,276.395233 84.619957,275.274963 83.627533,273.660645 &#xA;&#x9;C85.599281,273.498810 86.861618,273.306244 88.124153,273.304932 &#xA;&#x9;C106.947906,273.285645 125.772293,273.367981 144.594925,273.221863 &#xA;&#x9;C148.014328,273.195343 149.554718,274.023773 150.219910,277.664734 &#xA;&#x9;C152.490753,290.094452 155.182724,302.447205 157.803955,315.244934 &#xA;z"/>
  <path fill="#3CB7FF" stroke="none" d="&#xA;M267.000000,444.062012 &#xA;&#x9;C253.364349,444.062042 240.228683,444.062042 226.246536,444.062042 &#xA;&#x9;C228.063507,435.503479 229.729263,427.460754 231.481293,419.436890 &#xA;&#x9;C241.738205,372.463104 252.054062,325.502136 262.215424,278.507721 &#xA;&#x9;C263.071869,274.546906 264.622345,273.116333 268.846436,273.177124 &#xA;&#x9;C286.670471,273.433655 304.500946,273.360321 322.327576,273.219971 &#xA;&#x9;C325.661774,273.193726 327.862488,274.206665 329.900024,276.884369 &#xA;&#x9;C336.957703,286.159363 344.269897,295.240509 351.469177,304.408051 &#xA;&#x9;C353.982971,307.609070 353.782257,318.315552 351.095154,321.220703 &#xA;&#x9;C350.606628,321.748840 349.669495,322.121429 348.936951,322.125610 &#xA;&#x9;C337.774139,322.189026 326.610962,322.179352 315.447845,322.186218 &#xA;&#x9;C313.488373,322.187408 311.528931,322.186340 308.848938,322.186340 &#xA;&#x9;C309.768005,316.927216 310.578400,312.289978 311.531769,306.834625 &#xA;&#x9;C306.082764,306.834625 301.148560,306.739960 296.225525,306.932404 &#xA;&#x9;C295.449615,306.962708 294.248169,308.180908 294.048401,309.037598 &#xA;&#x9;C291.635223,319.386169 289.373413,329.770020 286.851288,341.140503 &#xA;&#x9;C304.791626,341.140503 322.227417,341.140503 339.663239,341.140503 &#xA;&#x9;C339.758026,341.580414 339.852814,342.020294 339.947632,342.460205 &#xA;&#x9;C335.226959,346.051636 330.530334,349.675171 325.779785,353.226654 &#xA;&#x9;C319.377777,358.012726 312.658630,362.419495 306.586273,367.588959 &#xA;&#x9;C300.522522,372.751099 294.035645,375.493591 286.085632,374.209290 &#xA;&#x9;C281.213257,373.422150 279.005219,375.252136 278.167267,380.323334 &#xA;&#x9;C276.703979,389.178802 274.420807,397.898041 272.522705,406.683319 &#xA;&#x9;C272.254425,407.925049 272.219482,409.217194 272.007385,411.099762 &#xA;&#x9;C277.224152,411.099762 282.018524,411.224121 286.796021,410.995361 &#xA;&#x9;C287.757233,410.949341 288.709320,409.617126 289.551300,408.764984 &#xA;&#x9;C289.851715,408.460968 289.810455,407.821747 289.930481,407.336853 &#xA;&#x9;C292.945770,395.155151 292.945862,395.155182 305.304871,395.155182 &#xA;&#x9;C315.079895,395.155182 324.854950,395.155182 335.272797,395.155182 &#xA;&#x9;C333.278809,404.652832 331.486481,413.404510 329.592834,422.134277 &#xA;&#x9;C328.322601,427.990021 326.706665,433.777893 325.635651,439.667084 &#xA;&#x9;C325.003693,443.141907 323.511627,444.186218 319.982208,444.148041 &#xA;&#x9;C302.489899,443.958649 284.994385,444.061890 267.000000,444.062012 &#xA;z"/>
  <path fill="#3CB7FF" stroke="none" d="&#xA;M359.428650,404.370911 &#xA;&#x9;C366.581238,371.843201 373.607483,339.717407 380.809814,306.786591 &#xA;&#x9;C374.838928,306.786591 369.703217,307.000977 364.601837,306.676086 &#xA;&#x9;C362.689087,306.554291 360.227478,305.690521 359.088409,304.291840 &#xA;&#x9;C351.414154,294.868439 344.023346,285.214081 336.567078,275.614044 &#xA;&#x9;C336.290558,275.258026 336.285797,274.690948 336.020477,273.744568 &#xA;&#x9;C385.515533,273.744568 434.811371,273.744568 484.749756,273.744568 &#xA;&#x9;C482.707031,283.167633 480.749146,292.218506 478.781769,301.267365 &#xA;&#x9;C477.508911,307.121796 476.377289,313.014862 474.824860,318.794617 &#xA;&#x9;C474.468262,320.122162 472.657745,322.007935 471.493622,322.024292 &#xA;&#x9;C458.672974,322.204498 445.847778,322.068878 433.024017,321.991577 &#xA;&#x9;C432.744690,321.989899 432.467346,321.665680 431.762817,321.225739 &#xA;&#x9;C432.532349,316.769684 433.334808,312.123077 434.256287,306.787292 &#xA;&#x9;C431.848694,306.787292 430.050049,306.934052 428.284363,306.755219 &#xA;&#x9;C425.086456,306.431335 423.588013,307.541626 422.874298,310.908325 &#xA;&#x9;C417.320435,337.107086 411.559814,363.261963 405.863342,389.430481 &#xA;&#x9;C402.183167,406.336700 398.568481,423.257874 394.711487,440.123627 &#xA;&#x9;C394.369751,441.617981 392.473083,443.857452 391.259918,443.882629 &#xA;&#x9;C378.134613,444.154755 365.001587,444.052521 350.859161,444.052521 &#xA;&#x9;C353.759888,430.557587 356.531097,417.665222 359.428650,404.370911 &#xA;z"/>
  <path fill="#044DAE" stroke="none" d="&#xA;M409.965637,215.982300 &#xA;&#x9;C397.104004,207.003845 384.567261,198.188934 371.958862,189.477631 &#xA;&#x9;C369.843872,188.016327 368.750488,186.770203 369.424133,183.830978 &#xA;&#x9;C373.216888,167.283188 376.822296,150.690536 380.269867,134.067215 &#xA;&#x9;C380.947571,130.799652 382.282654,129.883057 385.554565,129.900879 &#xA;&#x9;C411.044342,130.039871 436.535217,129.958527 462.025696,129.993942 &#xA;&#x9;C468.299957,130.002655 473.081512,134.283005 472.013031,139.679031 &#xA;&#x9;C468.978546,155.003891 465.466522,170.234207 461.992432,186.191071 &#xA;&#x9;C452.110809,180.061752 442.788483,174.362442 433.604797,168.447830 &#xA;&#x9;C432.734985,167.887619 432.319458,165.943558 432.419159,164.700180 &#xA;&#x9;C432.616364,162.240936 433.321686,159.822418 434.017395,156.401352 &#xA;&#x9;C426.311005,156.401352 418.939819,156.335022 411.574402,156.510422 &#xA;&#x9;C410.885803,156.526825 409.941132,157.973694 409.624634,158.925705 &#xA;&#x9;C408.945526,160.968628 408.722260,163.160095 408.087463,165.221497 &#xA;&#x9;C407.155548,168.247650 408.213623,170.061172 410.790192,171.840561 &#xA;&#x9;C425.318848,181.874146 439.666870,192.169617 454.217773,202.170242 &#xA;&#x9;C457.139313,204.178192 457.864105,205.970383 457.045441,209.516632 &#xA;&#x9;C453.001923,227.032516 449.224213,244.612549 445.616058,262.223907 &#xA;&#x9;C444.851044,265.957825 443.231049,266.858704 439.615662,266.835999 &#xA;&#x9;C414.625916,266.679108 389.634735,266.765289 364.644012,266.745728 &#xA;&#x9;C356.386505,266.739258 352.417023,261.807465 354.139801,253.926086 &#xA;&#x9;C357.195740,239.945755 360.185974,225.951065 363.225281,211.967087 &#xA;&#x9;C363.531616,210.557663 363.986206,209.180481 364.528290,207.224304 &#xA;&#x9;C374.159943,213.201309 383.379578,218.795258 392.400116,224.693741 &#xA;&#x9;C393.439789,225.373581 393.884094,227.807571 393.711273,229.326675 &#xA;&#x9;C393.322052,232.748291 392.372589,236.106140 391.501617,240.191208 &#xA;&#x9;C399.178314,240.191208 406.292358,240.276733 413.399261,240.089935 &#xA;&#x9;C414.356720,240.064789 415.577484,238.840195 416.136871,237.862381 &#xA;&#x9;C416.768463,236.758438 416.781952,235.303741 417.078705,234.004868 &#xA;&#x9;C419.656464,222.721329 419.657471,222.721558 409.965637,215.982300 &#xA;z"/>
  <path fill="#054EAF" stroke="none" d="&#xA;M191.785370,192.744385 &#xA;&#x9;C186.947327,196.329285 182.233780,199.504898 177.882828,203.117233 &#xA;&#x9;C171.695465,208.254227 165.315506,212.279846 156.707581,210.784546 &#xA;&#x9;C155.629013,210.597183 153.377121,211.988449 153.129837,213.003983 &#xA;&#x9;C151.012054,221.702026 149.231186,230.482101 147.152130,240.156433 &#xA;&#x9;C151.500473,240.156433 155.287552,240.514969 158.934357,239.956894 &#xA;&#x9;C160.167252,239.768234 161.560837,237.399063 161.998642,235.786819 &#xA;&#x9;C164.279053,227.388779 164.180023,227.361862 172.862289,227.361847 &#xA;&#x9;C181.122467,227.361832 189.382660,227.361862 198.243835,227.361862 &#xA;&#x9;C195.452667,240.162460 192.894424,252.163315 190.126923,264.115723 &#xA;&#x9;C189.885864,265.156830 188.268677,266.637146 187.288620,266.638702 &#xA;&#x9;C160.817810,266.681122 134.346710,266.557251 107.875702,266.450287 &#xA;&#x9;C107.731598,266.449707 107.588127,266.292267 107.072319,265.990204 &#xA;&#x9;C107.485840,263.722473 107.852722,261.290466 108.377983,258.893127 &#xA;&#x9;C116.072708,223.773529 123.743225,188.648422 131.574814,153.559280 &#xA;&#x9;C132.297775,150.320053 131.992783,147.869705 129.876099,145.291656 &#xA;&#x9;C125.994446,140.563919 122.386238,135.611664 117.884521,129.735550 &#xA;&#x9;C120.671005,129.735550 122.256851,129.735535 123.842690,129.735550 &#xA;&#x9;C150.665039,129.735825 177.487381,129.728302 204.309723,129.741547 &#xA;&#x9;C211.556351,129.745117 217.945862,137.799957 216.359406,144.870117 &#xA;&#x9;C214.578552,152.806503 212.799576,160.743332 211.001999,168.759308 &#xA;&#x9;C199.624573,168.759308 188.672180,168.759308 177.064148,168.759308 &#xA;&#x9;C177.778320,164.671631 178.444565,160.858398 179.261612,156.181961 &#xA;&#x9;C174.959167,156.181961 171.054657,156.058884 167.170639,156.286240 &#xA;&#x9;C166.397797,156.331482 165.251358,157.612457 165.043381,158.502625 &#xA;&#x9;C163.118164,166.742584 161.361069,175.021835 159.384277,184.071915 &#xA;&#x9;C173.757324,184.071915 187.578339,184.071915 201.399353,184.071915 &#xA;&#x9;C201.547104,184.499313 201.694855,184.926712 201.842606,185.354111 &#xA;&#x9;C198.585663,187.746109 195.328705,190.138107 191.785370,192.744385 &#xA;z"/>
  <path fill="#054EAF" stroke="none" d="&#xA;M289.779785,256.002655 &#xA;&#x9;C287.427490,266.756165 287.427490,266.756134 276.936523,266.756134 &#xA;&#x9;C254.954514,266.756104 232.972488,266.756134 210.990479,266.756134 &#xA;&#x9;C209.178467,266.756134 207.366440,266.756134 204.960587,266.756134 &#xA;&#x9;C205.124161,264.994965 205.107590,263.575378 205.403168,262.224091 &#xA;&#x9;C213.366211,225.816605 221.413345,189.427261 229.223129,152.987030 &#xA;&#x9;C229.697769,150.772369 228.968475,147.742157 227.698074,145.818893 &#xA;&#x9;C224.324448,140.711624 220.347519,136.002869 216.022675,130.369904 &#xA;&#x9;C234.010559,130.369904 251.116791,130.369904 268.824493,130.369904 &#xA;&#x9;C260.854492,166.745697 252.901001,203.046082 244.847794,239.801651 &#xA;&#x9;C249.692749,239.801651 254.069885,239.801651 258.692017,239.801651 &#xA;&#x9;C258.926575,239.029999 259.180481,238.268112 259.390106,237.494263 &#xA;&#x9;C262.127899,227.387558 262.126343,227.375900 272.893646,227.391098 &#xA;&#x9;C280.053101,227.401215 287.212555,227.444473 294.371826,227.495804 &#xA;&#x9;C294.677582,227.497986 294.981689,227.731216 295.813721,228.073975 &#xA;&#x9;C293.842743,237.178513 291.849518,246.385681 289.779785,256.002655 &#xA;z"/>
  <path fill="#054DAE" stroke="none" d="&#xA;M326.205750,159.977753 &#xA;&#x9;C329.455841,152.140366 327.746643,145.927460 322.075195,140.294525 &#xA;&#x9;C319.311859,137.549973 317.267151,134.081879 314.383209,130.260254 &#xA;&#x9;C332.382141,130.260254 349.391693,130.260254 367.121979,130.260254 &#xA;&#x9;C365.352020,138.478683 363.671295,146.381424 361.946442,154.274506 &#xA;&#x9;C354.128632,190.049850 346.224274,225.806641 338.574432,261.617828 &#xA;&#x9;C337.703796,265.693604 336.242035,267.019775 332.047729,266.864105 &#xA;&#x9;C322.603699,266.513489 313.137665,266.754120 302.907257,266.754120 &#xA;&#x9;C310.744843,230.857605 318.437622,195.624237 326.205750,159.977753 &#xA;z"/>
  <path fill="#FF995A" stroke="none" d="&#xA;M436.424622,435.345551 &#xA;&#x9;C436.624847,433.768585 436.413116,432.337860 437.022644,431.516785 &#xA;&#x9;C438.254547,429.857422 439.910217,427.410919 441.432251,427.380951 &#xA;&#x9;C442.930420,427.351471 445.514130,429.709381 445.836853,431.367218 &#xA;&#x9;C447.798370,441.443665 443.860016,449.907288 437.695068,457.590576 &#xA;&#x9;C427.210999,470.656647 412.640930,475.982880 396.841919,476.714630 &#xA;&#x9;C372.767059,477.829681 348.576691,478.412872 324.516449,477.363098 &#xA;&#x9;C297.280914,476.174774 270.091736,473.343414 242.960999,470.481384 &#xA;&#x9;C209.805832,466.983826 176.611160,464.773621 143.284927,465.709595 &#xA;&#x9;C119.549080,466.376221 96.146408,469.276825 74.398857,479.925812 &#xA;&#x9;C73.257957,480.484467 71.844948,480.487427 70.558624,480.749084 &#xA;&#x9;C70.329239,480.274200 70.099861,479.799347 69.870483,479.324463 &#xA;&#x9;C71.131561,478.301270 72.273392,477.063019 73.671906,476.287689 &#xA;&#x9;C90.107964,467.175293 107.897636,462.837555 126.489464,461.003296 &#xA;&#x9;C166.326706,457.072876 205.938278,460.372375 245.599503,463.887939 &#xA;&#x9;C280.063354,466.942810 314.561920,469.890564 349.108551,471.617249 &#xA;&#x9;C369.179504,472.620361 389.436462,471.510040 409.038788,465.960052 &#xA;&#x9;C424.987701,461.444427 434.853180,450.330627 436.424622,435.345551 &#xA;z"/>
  <path fill="#FFA066" stroke="none" d="&#xA;M89.991226,458.985352 &#xA;&#x9;C111.562157,451.606689 133.262314,445.315613 156.426407,451.225006 &#xA;&#x9;C134.900421,453.720978 113.102859,454.215240 91.426224,460.069458 &#xA;&#x9;C90.511932,459.627991 90.251572,459.306671 89.991226,458.985352 &#xA;z"/>
  <path fill="#FF9B5D" stroke="none" d="&#xA;M447.818878,464.842377 &#xA;&#x9;C443.197632,468.289032 439.514008,472.828339 432.499298,473.104218 &#xA;&#x9;C436.084412,469.859894 439.233582,467.478577 441.803131,464.582947 &#xA;&#x9;C446.510590,459.278015 449.735535,453.217621 450.633698,445.949005 &#xA;&#x9;C450.993347,443.038269 451.720062,438.578949 456.005432,439.822998 &#xA;&#x9;C459.748199,440.909485 459.371704,445.053436 457.851654,447.940247 &#xA;&#x9;C454.857117,453.627350 451.337952,459.038208 447.818878,464.842377 &#xA;z"/>
  <path fill="#FFB384" stroke="none" d="&#xA;M89.619247,458.986084 &#xA;&#x9;C90.251572,459.306671 90.511932,459.627991 91.042160,460.116791 &#xA;&#x9;C88.462524,461.451477 85.613022,462.618713 82.763512,463.785919 &#xA;&#x9;C82.530373,463.229431 82.297234,462.672913 82.064102,462.116394 &#xA;&#x9;C84.458496,461.073212 86.852890,460.030029 89.619247,458.986084 &#xA;z"/>
</svg>