<svg version="1.1" id="Layer_1" xmlns="http://www.w3.org/2000/svg" xmlns:xlink="http://www.w3.org/1999/xlink" x="0px" y="0px"
	 width="100%" viewBox="0 0 629 575" enable-background="new 0 0 629 575" xml:space="preserve">
<path fill="#FEFEFF" opacity="1.000000" stroke="none" 
	d="
M441.000000,576.000000 
	C294.030396,576.000000 147.560791,576.000000 1.045595,576.000000 
	C1.045595,384.403503 1.045595,192.807007 1.045595,1.105246 
	C210.552948,1.105246 420.105988,1.105246 629.829468,1.105246 
	C629.829468,192.666534 629.829468,384.333252 629.829468,576.000000 
	C567.140259,576.000000 504.320129,576.000000 441.000000,576.000000 
M119.083199,460.190765 
	C140.088791,454.137604 161.936249,453.873413 183.444382,451.219208 
	C160.228455,445.219879 138.554062,451.651276 116.246346,458.986206 
	C113.852036,460.029846 111.457718,461.073517 109.063408,462.117157 
	C109.306839,462.669373 109.550270,463.221619 109.793694,463.773834 
	C112.634201,462.610565 115.474701,461.447266 119.083199,460.190765 
M165.452423,273.290649 
	C147.390366,273.290649 129.328293,273.290649 109.843666,273.290649 
	C115.643723,280.947418 120.731506,287.258331 125.292213,293.929565 
	C126.675873,295.953522 127.550064,299.174194 127.055168,301.506744 
	C119.595444,336.666199 111.864059,371.767975 104.205566,406.885284 
	C101.554184,419.042999 98.927734,431.206116 96.148857,444.016937 
	C110.172157,444.016937 123.625168,444.100098 137.071762,443.845184 
	C138.053619,443.826538 139.533157,441.481934 139.864273,440.012146 
	C144.618484,418.908661 149.209335,397.768433 153.864731,376.642578 
	C154.124573,375.463440 154.604874,374.332886 154.982574,373.179718 
	C155.403397,373.189972 155.824234,373.200195 156.245071,373.210449 
	C159.408630,391.385406 162.572189,409.560394 165.877014,428.547028 
	C176.743423,420.357605 187.688080,413.830780 196.381668,405.070129 
	C204.971481,396.414062 211.286392,385.500580 219.389862,374.504547 
	C214.231461,398.256256 209.345306,420.754395 204.342133,443.791290 
	C206.918640,443.909546 208.541092,444.045380 210.163803,444.048462 
	C220.495926,444.068085 230.837677,443.797180 241.155899,444.176300 
	C245.828323,444.348022 247.280960,442.614105 248.218292,438.289337 
	C258.194580,392.260193 268.403381,346.281464 278.517029,300.282043 
	C280.435272,291.557343 282.216736,282.802582 284.224060,273.290649 
	C281.951324,273.290649 280.348969,273.290649 278.746613,273.290649 
	C267.914520,273.290619 257.071747,273.571075 246.255310,273.159424 
	C241.602829,272.982391 238.990524,274.745056 236.538895,278.350525 
	C226.235947,293.502380 215.736206,308.520599 205.287766,323.573364 
	C200.772186,330.078857 196.206268,336.549408 190.946106,344.059631 
	C190.082687,340.466278 189.445175,338.115234 188.957047,335.733521 
	C185.348846,318.127991 181.792923,300.511719 178.173645,282.908478 
	C176.194244,273.281189 176.153076,273.289642 165.452423,273.290649 
M305.579834,411.122894 
	C303.482452,411.122894 301.385071,411.122894 298.538300,411.122894 
	C301.032013,399.897675 303.575562,389.583099 305.509827,379.155518 
	C306.234802,375.247131 308.154114,374.215668 311.534180,374.242218 
	C313.865845,374.260529 316.287811,374.628418 318.509338,374.128632 
	C322.087860,373.323456 326.062164,372.682281 328.944733,370.656433 
	C341.063721,362.139252 352.846893,353.143768 364.725037,344.285889 
	C365.521271,343.692108 366.086121,342.788086 367.665100,341.004089 
	C349.060028,341.004089 331.724121,341.004089 313.884277,341.004089 
	C316.359497,329.846954 318.607788,319.465454 321.049561,309.129639 
	C321.267914,308.205444 322.711853,306.959290 323.635925,306.915985 
	C328.407837,306.692444 333.195801,306.812164 338.492523,306.812164 
	C337.567169,312.205139 336.768921,316.857208 335.863403,322.134338 
	C349.765411,322.134338 363.043243,322.144318 376.320862,322.100861 
	C376.900696,322.098969 377.619202,321.744446 378.034851,321.320587 
	C380.490295,318.816650 381.044800,307.728973 378.835144,304.909027 
	C371.647308,295.735962 364.300110,286.684479 357.275421,277.388824 
	C355.043030,274.434753 352.717926,273.163483 348.959259,273.203033 
	C331.304504,273.388855 313.643463,273.468658 295.992126,273.159821 
	C291.431030,273.079956 290.035095,274.805481 289.158752,278.854675 
	C279.378082,324.048035 269.438721,369.207001 259.562500,414.379700 
	C257.446381,424.058411 255.411713,433.754944 253.330322,443.486389 
	C254.397644,443.782593 254.864441,444.025238 255.331436,444.025604 
	C286.313904,444.049469 317.296509,444.020691 348.278748,444.114563 
	C351.155823,444.123260 351.903961,442.763214 352.417664,440.343628 
	C354.559540,430.255402 356.864685,420.201935 359.083374,410.129852 
	C360.136505,405.349152 361.129913,400.555298 362.280884,395.154846 
	C349.787109,395.154846 338.145630,395.474854 326.535217,395.012695 
	C321.159882,394.798706 318.955444,396.353149 317.992859,401.716217 
	C316.293304,411.185150 315.944672,411.122589 305.579834,411.122894 
M394.109314,369.568604 
	C388.712219,394.167572 383.315125,418.766541 377.769836,444.040863 
	C392.059967,444.040863 405.350586,444.128021 418.634827,443.877838 
	C419.714539,443.857513 421.388397,441.673737 421.710022,440.251831 
	C425.564056,423.213348 429.203796,406.126556 432.920685,389.056946 
	C438.583496,363.050751 444.224792,337.039642 450.029297,311.065033 
	C450.380859,309.491913 451.850159,307.379578 453.214600,306.996368 
	C455.595367,306.327667 458.299438,306.810089 461.267303,306.810089 
	C460.296082,312.347198 459.484558,316.973816 458.570190,322.186798 
	C469.620636,322.186798 479.750793,322.186798 489.880951,322.186798 
	C501.134613,322.186798 501.162445,322.192963 503.606598,311.138000 
	C506.326080,298.837463 508.988129,286.524231 511.788391,273.697998 
	C461.871948,273.697998 412.579773,273.697998 363.102844,273.697998 
	C363.296631,274.591919 363.255798,275.166779 363.518860,275.505890 
	C371.071472,285.241089 378.555786,295.033264 386.343933,304.577271 
	C387.455414,305.939362 390.033936,306.578308 391.983063,306.690460 
	C397.016113,306.980103 402.076935,306.787506 407.780029,306.787506 
	C403.131287,328.172699 398.720062,348.465424 394.109314,369.568604 
M413.658081,220.933960 
	C406.389984,216.438492 399.121887,211.943024 391.476074,207.213928 
	C390.915558,209.301086 390.521301,210.555573 390.243774,211.835342 
	C387.210724,225.821350 384.213928,239.815231 381.169128,253.798676 
	C379.437653,261.750671 383.355377,266.737091 391.512817,266.744537 
	C416.669769,266.767548 441.827362,266.666870 466.982971,266.850861 
	C470.590088,266.877258 471.855743,265.701233 472.555420,262.346924 
	C476.294220,244.422333 480.141449,226.518433 484.211823,208.666794 
	C484.906342,205.620895 484.075165,204.189102 481.719116,202.560410 
	C468.291290,193.278046 454.953613,183.864990 441.607513,174.464798 
	C433.644318,168.856033 433.662323,168.830017 436.379333,159.512817 
	C436.519226,159.033035 436.537018,158.433655 436.842621,158.103912 
	C437.454742,157.443253 438.218567,156.444550 438.934204,156.432343 
	C446.172821,156.309128 453.414337,156.357224 461.011871,156.357224 
	C460.341309,159.696136 459.594238,162.115921 459.465607,164.568130 
	C459.394104,165.932098 459.929779,168.005005 460.914124,168.641693 
	C469.977570,174.504196 479.199036,180.122391 488.638580,185.975403 
	C489.169891,184.312805 489.670319,183.082199 489.955261,181.803558 
	C492.852173,168.803146 495.726746,155.797699 498.580963,142.787842 
	C500.389069,134.546249 496.698456,129.991867 488.164398,129.984985 
	C463.007446,129.964737 437.850494,129.972961 412.693542,129.988052 
	C411.239197,129.988922 409.784882,130.149734 408.099030,130.249863 
	C404.281677,147.933853 400.670074,165.366394 396.653046,182.705002 
	C395.809296,186.346954 396.794525,188.052551 399.633179,189.996567 
	C414.063171,199.878860 428.394867,209.906677 442.647797,220.042755 
	C444.155823,221.115189 445.973755,223.321014 445.838196,224.839478 
	C445.441467,229.283005 444.227905,233.670502 443.092865,238.016876 
	C442.867889,238.878311 441.581390,240.057297 440.761810,240.075562 
	C433.517853,240.236893 426.268799,240.169189 418.584167,240.169189 
	C419.078278,237.618744 419.403992,235.845505 419.766815,234.079910 
	C421.842651,223.978943 422.603882,226.814163 413.658081,220.933960 
M158.499969,266.756287 
	C177.796783,266.756287 197.093582,266.756287 216.673782,266.756287 
	C219.541275,253.552200 222.315201,240.778961 225.229050,227.361450 
	C216.403091,227.361450 208.269302,227.361450 200.135529,227.361465 
	C191.206284,227.361465 191.310059,227.390091 188.932907,236.006958 
	C188.502472,237.567261 186.983719,239.773300 185.702591,239.971741 
	C182.167953,240.519226 178.493042,240.161072 174.185440,240.161072 
	C175.880463,232.180481 177.780060,224.946152 178.859070,217.591446 
	C179.657944,212.146210 181.806076,209.605438 187.485977,210.622147 
	C192.414200,211.504288 196.371704,209.572784 200.265961,206.529510 
	C208.665436,199.965500 217.386292,193.813187 225.956451,187.466522 
	C226.924881,186.749359 227.770340,185.866119 229.838608,184.018433 
	C214.553558,184.018433 200.734528,184.018433 186.392334,184.018433 
	C188.372528,174.960861 190.114014,166.671677 192.084061,158.437195 
	C192.303894,157.518341 193.781250,156.330231 194.746368,156.261353 
	C198.363556,156.003265 202.010208,156.158035 206.272491,156.158035 
	C205.481735,160.581863 204.793610,164.431564 204.041290,168.640381 
	C215.471603,168.640381 226.551895,168.640381 238.019867,168.640381 
	C239.864182,160.496979 241.726151,152.402161 243.524780,144.293289 
	C244.920639,138.000168 238.221710,129.748520 231.702271,129.744064 
	C204.537918,129.725540 177.373566,129.731155 150.209229,129.748322 
	C148.822769,129.749191 147.436447,129.939636 145.136566,130.109161 
	C149.349609,135.586975 152.873108,140.404099 156.661118,145.003387 
	C158.870728,147.686234 159.323700,150.228851 158.546921,153.699448 
	C150.691895,188.795410 143.037216,223.936234 135.348969,259.069427 
	C134.832199,261.430969 134.498917,263.832672 133.985336,266.756226 
	C142.227676,266.756226 149.863831,266.756226 158.499969,266.756287 
M239.169006,231.405930 
	C236.634918,243.004883 234.100830,254.603851 231.445831,266.756287 
	C234.282211,266.756287 236.091751,266.756287 237.901291,266.756287 
	C260.562347,266.756317 283.223602,266.815948 305.884369,266.729645 
	C316.293976,266.690033 313.892731,268.350037 316.244781,258.398499 
	C318.634369,248.288208 320.641693,238.087555 322.931915,227.386902 
	C314.023285,227.386902 305.881500,227.386948 297.739746,227.386902 
	C288.875153,227.386826 288.883545,227.388809 286.751282,236.211044 
	C286.448669,237.463058 286.018188,238.684174 285.707977,239.716461 
	C280.957458,239.716461 276.610870,239.716461 271.868988,239.716461 
	C279.936615,202.886383 287.889557,166.579712 295.882843,130.088989 
	C278.016693,130.088989 260.939301,130.088989 242.815765,130.088989 
	C247.276276,135.905838 251.379425,140.896866 255.014130,146.208450 
	C256.154572,147.875046 256.792847,150.565308 256.377747,152.513611 
	C250.827286,178.565201 245.048920,204.568237 239.169006,231.405930 
M342.205658,210.505325 
	C338.163666,229.005844 334.121643,247.506363 329.916321,266.754395 
	C340.208496,266.754395 349.819855,266.539398 359.413635,266.856262 
	C363.461456,266.989960 364.726959,265.516724 365.534393,261.747253 
	C372.856140,227.566803 380.399719,193.433868 387.864288,159.283966 
	C389.950165,149.741089 391.989410,140.188034 394.140625,130.219879 
	C376.481415,130.219879 359.452850,130.219879 341.322052,130.219879 
	C345.419617,135.613892 348.816620,140.468872 352.631897,144.969284 
	C355.051544,147.823425 355.403992,150.497375 354.584320,154.089447 
	C350.363281,172.587936 346.427490,191.151505 342.205658,210.505325 
M156.300140,466.597198 
	C161.279358,466.268280 166.254730,465.738525 171.238419,465.642944 
	C204.402390,465.006775 237.420578,467.032928 270.403107,470.526581 
	C296.869415,473.330017 323.396545,475.806244 349.958527,477.390930 
	C376.859406,478.995880 403.860626,480.261932 430.687836,475.864197 
	C448.060394,473.016357 462.420593,465.269104 470.085266,448.752380 
	C472.465698,443.622772 472.428986,437.245148 472.782104,431.395630 
	C472.863861,430.041534 470.008026,427.378265 468.502838,427.377441 
	C466.986908,427.376617 464.721069,429.683197 464.117859,431.437531 
	C463.056030,434.525635 463.378265,438.068115 462.474060,441.235657 
	C458.621521,454.731506 448.784882,462.229553 435.961700,465.936523 
	C416.563049,471.544312 396.439331,472.679779 376.550659,471.597534 
	C338.196228,469.510437 299.909210,466.086670 261.622803,462.876007 
	C225.259384,459.826599 188.924942,457.310425 152.452011,461.077911 
	C134.213577,462.961853 116.762192,467.348114 100.640175,476.306427 
	C99.249474,477.079224 98.122551,478.326752 96.873093,479.353729 
	C97.154549,479.997375 97.435997,480.641022 97.717445,481.284668 
	C116.074272,472.663300 135.326065,467.924896 156.300140,466.597198 
M473.636963,457.937561 
	C469.328339,462.929138 465.019684,467.920715 460.403870,473.268188 
	C461.837769,472.918182 463.164307,472.843781 464.247162,472.291534 
	C475.025909,466.794281 482.179565,458.181458 485.177124,446.492279 
	C485.686890,444.504456 484.406738,440.475525 482.946228,439.886383 
	C479.675629,438.566956 478.738556,441.907623 477.941559,444.502106 
	C476.632782,448.762817 475.308807,453.018890 473.636963,457.937561 
z"/>
<path fill="#3AB7FF" opacity="1.000000" stroke="none" 
	d="
M165.941467,273.290833 
	C176.153076,273.289642 176.194244,273.281189 178.173645,282.908478 
	C181.792923,300.511719 185.348846,318.127991 188.957047,335.733521 
	C189.445175,338.115234 190.082687,340.466278 190.946106,344.059631 
	C196.206268,336.549408 200.772186,330.078857 205.287766,323.573364 
	C215.736206,308.520599 226.235947,293.502380 236.538895,278.350525 
	C238.990524,274.745056 241.602829,272.982391 246.255310,273.159424 
	C257.071747,273.571075 267.914520,273.290619 278.746613,273.290649 
	C280.348969,273.290649 281.951324,273.290649 284.224060,273.290649 
	C282.216736,282.802582 280.435272,291.557343 278.517029,300.282043 
	C268.403381,346.281464 258.194580,392.260193 248.218292,438.289337 
	C247.280960,442.614105 245.828323,444.348022 241.155899,444.176300 
	C230.837677,443.797180 220.495926,444.068085 210.163803,444.048462 
	C208.541092,444.045380 206.918640,443.909546 204.342133,443.791290 
	C209.345306,420.754395 214.231461,398.256256 219.389862,374.504547 
	C211.286392,385.500580 204.971481,396.414062 196.381668,405.070129 
	C187.688080,413.830780 176.743423,420.357605 165.877014,428.547028 
	C162.572189,409.560394 159.408630,391.385406 156.245071,373.210449 
	C155.824234,373.200195 155.403397,373.189972 154.982574,373.179718 
	C154.604874,374.332886 154.124573,375.463440 153.864731,376.642578 
	C149.209335,397.768433 144.618484,418.908661 139.864273,440.012146 
	C139.533157,441.481934 138.053619,443.826538 137.071762,443.845184 
	C123.625168,444.100098 110.172157,444.016937 96.148857,444.016937 
	C98.927734,431.206116 101.554184,419.042999 104.205566,406.885284 
	C111.864059,371.767975 119.595444,336.666199 127.055168,301.506744 
	C127.550064,299.174194 126.675873,295.953522 125.292213,293.929565 
	C120.731506,287.258331 115.643723,280.947418 109.843666,273.290649 
	C129.328293,273.290649 147.390366,273.290649 165.941467,273.290833 
z"/>
<path fill="#3CB7FF" opacity="1.000000" stroke="none" 
	d="
M306.057129,411.122986 
	C315.944672,411.122589 316.293304,411.185150 317.992859,401.716217 
	C318.955444,396.353149 321.159882,394.798706 326.535217,395.012695 
	C338.145630,395.474854 349.787109,395.154846 362.280884,395.154846 
	C361.129913,400.555298 360.136505,405.349152 359.083374,410.129852 
	C356.864685,420.201935 354.559540,430.255402 352.417664,440.343628 
	C351.903961,442.763214 351.155823,444.123260 348.278748,444.114563 
	C317.296509,444.020691 286.313904,444.049469 255.331436,444.025604 
	C254.864441,444.025238 254.397644,443.782593 253.330322,443.486389 
	C255.411713,433.754944 257.446381,424.058411 259.562500,414.379700 
	C269.438721,369.207001 279.378082,324.048035 289.158752,278.854675 
	C290.035095,274.805481 291.431030,273.079956 295.992126,273.159821 
	C313.643463,273.468658 331.304504,273.388855 348.959259,273.203033 
	C352.717926,273.163483 355.043030,274.434753 357.275421,277.388824 
	C364.300110,286.684479 371.647308,295.735962 378.835144,304.909027 
	C381.044800,307.728973 380.490295,318.816650 378.034851,321.320587 
	C377.619202,321.744446 376.900696,322.098969 376.320862,322.100861 
	C363.043243,322.144318 349.765411,322.134338 335.863403,322.134338 
	C336.768921,316.857208 337.567169,312.205139 338.492523,306.812164 
	C333.195801,306.812164 328.407837,306.692444 323.635925,306.915985 
	C322.711853,306.959290 321.267914,308.205444 321.049561,309.129639 
	C318.607788,319.465454 316.359497,329.846954 313.884277,341.004089 
	C331.724121,341.004089 349.060028,341.004089 367.665100,341.004089 
	C366.086121,342.788086 365.521271,343.692108 364.725037,344.285889 
	C352.846893,353.143768 341.063721,362.139252 328.944733,370.656433 
	C326.062164,372.682281 322.087860,373.323456 318.509338,374.128632 
	C316.287811,374.628418 313.865845,374.260529 311.534180,374.242218 
	C308.154114,374.215668 306.234802,375.247131 305.509827,379.155518 
	C303.575562,389.583099 301.032013,399.897675 298.538300,411.122894 
	C301.385071,411.122894 303.482452,411.122894 306.057129,411.122986 
z"/>
<path fill="#3CB7FF" opacity="1.000000" stroke="none" 
	d="
M394.209045,369.163361 
	C398.720062,348.465424 403.131287,328.172699 407.780029,306.787506 
	C402.076935,306.787506 397.016113,306.980103 391.983063,306.690460 
	C390.033936,306.578308 387.455414,305.939362 386.343933,304.577271 
	C378.555786,295.033264 371.071472,285.241089 363.518860,275.505890 
	C363.255798,275.166779 363.296631,274.591919 363.102844,273.697998 
	C412.579773,273.697998 461.871948,273.697998 511.788391,273.697998 
	C508.988129,286.524231 506.326080,298.837463 503.606598,311.138000 
	C501.162445,322.192963 501.134613,322.186798 489.880951,322.186798 
	C479.750793,322.186798 469.620636,322.186798 458.570190,322.186798 
	C459.484558,316.973816 460.296082,312.347198 461.267303,306.810089 
	C458.299438,306.810089 455.595367,306.327667 453.214600,306.996368 
	C451.850159,307.379578 450.380859,309.491913 450.029297,311.065033 
	C444.224792,337.039642 438.583496,363.050751 432.920685,389.056946 
	C429.203796,406.126556 425.564056,423.213348 421.710022,440.251831 
	C421.388397,441.673737 419.714539,443.857513 418.634827,443.877838 
	C405.350586,444.128021 392.059967,444.040863 377.769836,444.040863 
	C383.315125,418.766541 388.712219,394.167572 394.209045,369.163361 
z"/>
<path fill="#044DAE" opacity="1.000000" stroke="none" 
	d="
M413.976318,221.114700 
	C422.603882,226.814163 421.842651,223.978943 419.766815,234.079910 
	C419.403992,235.845505 419.078278,237.618744 418.584167,240.169189 
	C426.268799,240.169189 433.517853,240.236893 440.761810,240.075562 
	C441.581390,240.057297 442.867889,238.878311 443.092865,238.016876 
	C444.227905,233.670502 445.441467,229.283005 445.838196,224.839478 
	C445.973755,223.321014 444.155823,221.115189 442.647797,220.042755 
	C428.394867,209.906677 414.063171,199.878860 399.633179,189.996567 
	C396.794525,188.052551 395.809296,186.346954 396.653046,182.705002 
	C400.670074,165.366394 404.281677,147.933853 408.099030,130.249863 
	C409.784882,130.149734 411.239197,129.988922 412.693542,129.988052 
	C437.850494,129.972961 463.007446,129.964737 488.164398,129.984985 
	C496.698456,129.991867 500.389069,134.546249 498.580963,142.787842 
	C495.726746,155.797699 492.852173,168.803146 489.955261,181.803558 
	C489.670319,183.082199 489.169891,184.312805 488.638580,185.975403 
	C479.199036,180.122391 469.977570,174.504196 460.914124,168.641693 
	C459.929779,168.005005 459.394104,165.932098 459.465607,164.568130 
	C459.594238,162.115921 460.341309,159.696136 461.011871,156.357224 
	C453.414337,156.357224 446.172821,156.309128 438.934204,156.432343 
	C438.218567,156.444550 437.454742,157.443253 436.842621,158.103912 
	C436.537018,158.433655 436.519226,159.033035 436.379333,159.512817 
	C433.662323,168.830017 433.644318,168.856033 441.607513,174.464798 
	C454.953613,183.864990 468.291290,193.278046 481.719116,202.560410 
	C484.075165,204.189102 484.906342,205.620895 484.211823,208.666794 
	C480.141449,226.518433 476.294220,244.422333 472.555420,262.346924 
	C471.855743,265.701233 470.590088,266.877258 466.982971,266.850861 
	C441.827362,266.666870 416.669769,266.767548 391.512817,266.744537 
	C383.355377,266.737091 379.437653,261.750671 381.169128,253.798676 
	C384.213928,239.815231 387.210724,225.821350 390.243774,211.835342 
	C390.521301,210.555573 390.915558,209.301086 391.476074,207.213928 
	C399.121887,211.943024 406.389984,216.438492 413.976318,221.114700 
z"/>
<path fill="#054EAF" opacity="1.000000" stroke="none" 
	d="
M157.999969,266.756256 
	C149.863831,266.756226 142.227676,266.756226 133.985336,266.756226 
	C134.498917,263.832672 134.832199,261.430969 135.348969,259.069427 
	C143.037216,223.936234 150.691895,188.795410 158.546921,153.699448 
	C159.323700,150.228851 158.870728,147.686234 156.661118,145.003387 
	C152.873108,140.404099 149.349609,135.586975 145.136566,130.109161 
	C147.436447,129.939636 148.822769,129.749191 150.209229,129.748322 
	C177.373566,129.731155 204.537918,129.725540 231.702271,129.744064 
	C238.221710,129.748520 244.920639,138.000168 243.524780,144.293289 
	C241.726151,152.402161 239.864182,160.496979 238.019867,168.640381 
	C226.551895,168.640381 215.471603,168.640381 204.041290,168.640381 
	C204.793610,164.431564 205.481735,160.581863 206.272491,156.158035 
	C202.010208,156.158035 198.363556,156.003265 194.746368,156.261353 
	C193.781250,156.330231 192.303894,157.518341 192.084061,158.437195 
	C190.114014,166.671677 188.372528,174.960861 186.392334,184.018433 
	C200.734528,184.018433 214.553558,184.018433 229.838608,184.018433 
	C227.770340,185.866119 226.924881,186.749359 225.956451,187.466522 
	C217.386292,193.813187 208.665436,199.965500 200.265961,206.529510 
	C196.371704,209.572784 192.414200,211.504288 187.485977,210.622147 
	C181.806076,209.605438 179.657944,212.146210 178.859070,217.591446 
	C177.780060,224.946152 175.880463,232.180481 174.185440,240.161072 
	C178.493042,240.161072 182.167953,240.519226 185.702591,239.971741 
	C186.983719,239.773300 188.502472,237.567261 188.932907,236.006958 
	C191.310059,227.390091 191.206284,227.361465 200.135529,227.361465 
	C208.269302,227.361450 216.403091,227.361450 225.229050,227.361450 
	C222.315201,240.778961 219.541275,253.552200 216.673782,266.756287 
	C197.093582,266.756287 177.796783,266.756287 157.999969,266.756256 
z"/>
<path fill="#054EAF" opacity="1.000000" stroke="none" 
	d="
M239.248138,230.994644 
	C245.048920,204.568237 250.827286,178.565201 256.377747,152.513611 
	C256.792847,150.565308 256.154572,147.875046 255.014130,146.208450 
	C251.379425,140.896866 247.276276,135.905838 242.815765,130.088989 
	C260.939301,130.088989 278.016693,130.088989 295.882843,130.088989 
	C287.889557,166.579712 279.936615,202.886383 271.868988,239.716461 
	C276.610870,239.716461 280.957458,239.716461 285.707977,239.716461 
	C286.018188,238.684174 286.448669,237.463058 286.751282,236.211044 
	C288.883545,227.388809 288.875153,227.386826 297.739746,227.386902 
	C305.881500,227.386948 314.023285,227.386902 322.931915,227.386902 
	C320.641693,238.087555 318.634369,248.288208 316.244781,258.398499 
	C313.892731,268.350037 316.293976,266.690033 305.884369,266.729645 
	C283.223602,266.815948 260.562347,266.756317 237.901291,266.756287 
	C236.091751,266.756287 234.282211,266.756287 231.445831,266.756287 
	C234.100830,254.603851 236.634918,243.004883 239.248138,230.994644 
z"/>
<path fill="#054DAE" opacity="1.000000" stroke="none" 
	d="
M342.298889,210.098846 
	C346.427490,191.151505 350.363281,172.587936 354.584320,154.089447 
	C355.403992,150.497375 355.051544,147.823425 352.631897,144.969284 
	C348.816620,140.468872 345.419617,135.613892 341.322052,130.219879 
	C359.452850,130.219879 376.481415,130.219879 394.140625,130.219879 
	C391.989410,140.188034 389.950165,149.741089 387.864288,159.283966 
	C380.399719,193.433868 372.856140,227.566803 365.534393,261.747253 
	C364.726959,265.516724 363.461456,266.989960 359.413635,266.856262 
	C349.819855,266.539398 340.208496,266.754395 329.916321,266.754395 
	C334.121643,247.506363 338.163666,229.005844 342.298889,210.098846 
z"/>
<path fill="#FF995A" opacity="1.000000" stroke="none" 
	d="
M155.836258,466.615417 
	C135.326065,467.924896 116.074272,472.663300 97.717445,481.284668 
	C97.435997,480.641022 97.154549,479.997375 96.873093,479.353729 
	C98.122551,478.326752 99.249474,477.079224 100.640175,476.306427 
	C116.762192,467.348114 134.213577,462.961853 152.452011,461.077911 
	C188.924942,457.310425 225.259384,459.826599 261.622803,462.876007 
	C299.909210,466.086670 338.196228,469.510437 376.550659,471.597534 
	C396.439331,472.679779 416.563049,471.544312 435.961700,465.936523 
	C448.784882,462.229553 458.621521,454.731506 462.474060,441.235657 
	C463.378265,438.068115 463.056030,434.525635 464.117859,431.437531 
	C464.721069,429.683197 466.986908,427.376617 468.502838,427.377441 
	C470.008026,427.378265 472.863861,430.041534 472.782104,431.395630 
	C472.428986,437.245148 472.465698,443.622772 470.085266,448.752380 
	C462.420593,465.269104 448.060394,473.016357 430.687836,475.864197 
	C403.860626,480.261932 376.859406,478.995880 349.958527,477.390930 
	C323.396545,475.806244 296.869415,473.330017 270.403107,470.526581 
	C237.420578,467.032928 204.402390,465.006775 171.238419,465.642944 
	C166.254730,465.738525 161.279358,466.268280 155.836258,466.615417 
z"/>
<path fill="#FFA166" opacity="1.000000" stroke="none" 
	d="
M116.990158,458.983337 
	C138.554062,451.651276 160.228455,445.219879 183.444382,451.219208 
	C161.936249,453.873413 140.088791,454.137604 118.428230,460.070190 
	C117.512222,459.627502 117.251190,459.305420 116.990158,458.983337 
z"/>
<path fill="#FF9B5D" opacity="1.000000" stroke="none" 
	d="
M473.814087,457.607239 
	C475.308807,453.018890 476.632782,448.762817 477.941559,444.502106 
	C478.738556,441.907623 479.675629,438.566956 482.946228,439.886383 
	C484.406738,440.475525 485.686890,444.504456 485.177124,446.492279 
	C482.179565,458.181458 475.025909,466.794281 464.247162,472.291534 
	C463.164307,472.843781 461.837769,472.918182 460.403870,473.268188 
	C465.019684,467.920715 469.328339,462.929138 473.814087,457.607239 
z"/>
<path fill="#FFB384" opacity="1.000000" stroke="none" 
	d="
M116.618248,458.984772 
	C117.251190,459.305420 117.512222,459.627502 118.044235,460.116760 
	C115.474701,461.447266 112.634201,462.610565 109.793694,463.773834 
	C109.550270,463.221619 109.306839,462.669373 109.063408,462.117157 
	C111.457718,461.073517 113.852036,460.029846 116.618248,458.984772 
z"/>
</svg>